<svg width="273.000000" height="27.000000" viewBox="0 0 273 27" fill="none" xmlns="http://www.w3.org/2000/svg" xmlns:xlink="http://www.w3.org/1999/xlink">
	<desc>
			Created with Pixso.
	</desc>
	<defs/>
	<path id="Vector" d="M257.42 15.72L247.33 -0.62L252.79 -0.62L259.91 11.43L266.91 -0.62L272.18 -0.62L262.13 15.72L262.13 26.26L257.42 26.26L257.42 15.72Z" fill="#FFFFFF" fill-opacity="1.000000" fill-rule="nonzero"/>
	<path id="Vector" d="M224.82 -0.62L244.17 -0.62L244.17 3.45L229.53 3.45L229.53 10.49L243.08 10.49L243.08 14.33L229.53 14.33L229.53 22.19L244.44 22.19L244.44 26.26L224.82 26.26L224.82 -0.62Z" fill="#FFFFFF" fill-opacity="1.000000" fill-rule="nonzero"/>
	<path id="Vector" d="M196.43 -0.62L209.27 -0.62C212.23 -0.62 214.45 0.02 215.94 1.3C217.42 2.58 218.16 4.36 218.16 6.65C218.16 7.93 217.97 8.99 217.59 9.85C217.22 10.67 216.78 11.35 216.27 11.88C215.77 12.38 215.27 12.74 214.77 12.97C214.29 13.2 213.94 13.35 213.71 13.42L213.71 13.5C214.12 13.55 214.54 13.67 214.99 13.87C215.47 14.07 215.91 14.4 216.31 14.85C216.71 15.28 217.04 15.84 217.29 16.55C217.57 17.25 217.7 18.13 217.7 19.18C217.7 20.76 217.82 22.21 218.04 23.51C218.29 24.79 218.67 25.71 219.17 26.26L214.13 26.26C213.78 25.68 213.56 25.04 213.49 24.34C213.44 23.64 213.41 22.96 213.41 22.31C213.41 21.08 213.34 20.02 213.19 19.14C213.04 18.24 212.76 17.5 212.36 16.92C211.96 16.32 211.41 15.88 210.7 15.61C210.02 15.33 209.15 15.19 208.07 15.19L201.14 15.19L201.14 26.26L196.43 26.26L196.43 -0.62ZM201.14 11.61L208.86 11.61C210.36 11.61 211.51 11.26 212.28 10.56C213.06 9.83 213.45 8.75 213.45 7.32C213.45 6.47 213.33 5.78 213.07 5.25C212.82 4.7 212.47 4.27 212.02 3.97C211.59 3.67 211.09 3.47 210.51 3.37C209.96 3.27 209.38 3.22 208.78 3.22L201.14 3.22L201.14 11.61Z" fill="#FFFFFF" fill-opacity="1.000000" fill-rule="nonzero"/>
	<path id="Vector" d="M167.19 -0.62L172.16 -0.62L184.44 19.18L184.51 19.18L184.51 -0.62L188.99 -0.62L188.99 26.26L184.02 26.26L171.79 6.49L171.67 6.49L171.67 26.26L167.19 26.26L167.19 -0.62Z" fill="#FFFFFF" fill-opacity="1.000000" fill-rule="nonzero"/>
	<path id="Vector" d="M141.79 -0.62L161.14 -0.62L161.14 3.45L146.49 3.45L146.49 10.49L160.05 10.49L160.05 14.33L146.49 14.33L146.49 22.19L161.4 22.19L161.4 26.26L141.79 26.26L141.79 -0.62Z" fill="#FFFFFF" fill-opacity="1.000000" fill-rule="nonzero"/>
	<path id="Vector" d="M113.84 -0.62L118.73 -0.62L125.47 20.65L125.55 20.65L132.44 -0.62L137.22 -0.62L128.03 26.26L122.8 26.26L113.84 -0.62Z" fill="#FFFFFF" fill-opacity="1.000000" fill-rule="nonzero"/>
	<path id="Vector" d="M75.9 -0.62L81.51 -0.62L87.61 8.87L93.97 -0.62L99.24 -0.62L90.36 12.33L99.88 26.26L94.16 26.26L87.46 15.98L80.64 26.26L75.26 26.26L84.79 12.33L75.9 -0.62Z" fill="#FFFFFF" fill-opacity="1.000000" fill-rule="nonzero"/>
	<path id="Vector" d="M52.64 -0.62L71.99 -0.62L71.99 3.45L57.35 3.45L57.35 10.49L70.9 10.49L70.9 14.33L57.35 14.33L57.35 22.19L72.25 22.19L72.25 26.26L52.64 26.26L52.64 -0.62Z" fill="#FFFFFF" fill-opacity="1.000000" fill-rule="nonzero"/>
	<path id="Vector" d="M29.14 -0.62L33.85 -0.62L33.85 22.19L47.51 22.19L47.51 26.26L29.14 26.26L29.14 -0.62Z" fill="#FFFFFF" fill-opacity="1.000000" fill-rule="nonzero"/>
	<path id="Vector" d="M9.34 -0.62L14.34 -0.62L24.7 26.26L19.65 26.26L17.13 19.14L6.4 19.14L3.88 26.26L-0.98 26.26L9.34 -0.62ZM7.68 15.57L15.89 15.57L11.86 4.01L11.75 4.01L7.68 15.57Z" fill="#FFFFFF" fill-opacity="1.000000" fill-rule="nonzero"/>
</svg>
